<svg id="visual" viewBox="0 0 900 600" width="900" height="600" xmlns="http://www.w3.org/2000/svg" xmlns:xlink="http://www.w3.org/1999/xlink" version="1.1"><rect x="0" y="0" width="900" height="600" fill="#001220"></rect><path d="M0 410L16.7 408.3C33.3 406.7 66.7 403.3 100 405.7C133.3 408 166.7 416 200 419.2C233.3 422.3 266.7 420.7 300 421.7C333.3 422.7 366.7 426.3 400 426.7C433.3 427 466.7 424 500 414.7C533.3 405.3 566.7 389.7 600 390C633.3 390.3 666.7 406.7 700 409.5C733.3 412.3 766.7 401.7 800 405C833.3 408.3 866.7 425.7 883.3 434.3L900 443L900 601L883.3 601C866.7 601 833.3 601 800 601C766.7 601 733.3 601 700 601C666.7 601 633.3 601 600 601C566.7 601 533.3 601 500 601C466.7 601 433.3 601 400 601C366.7 601 333.3 601 300 601C266.7 601 233.3 601 200 601C166.7 601 133.3 601 100 601C66.7 601 33.3 601 16.7 601L0 601Z" fill="#4facf7"></path><path d="M0 430L16.7 435.8C33.3 441.7 66.7 453.3 100 453.5C133.3 453.7 166.7 442.3 200 441.3C233.3 440.3 266.7 449.7 300 451.7C333.3 453.7 366.7 448.3 400 443C433.3 437.7 466.7 432.3 500 428.3C533.3 424.3 566.7 421.7 600 426.7C633.3 431.7 666.7 444.3 700 447.5C733.3 450.7 766.7 444.3 800 440.7C833.3 437 866.7 436 883.3 435.5L900 435L900 601L883.3 601C866.7 601 833.3 601 800 601C766.7 601 733.3 601 700 601C666.7 601 633.3 601 600 601C566.7 601 533.3 601 500 601C466.7 601 433.3 601 400 601C366.7 601 333.3 601 300 601C266.7 601 233.3 601 200 601C166.7 601 133.3 601 100 601C66.7 601 33.3 601 16.7 601L0 601Z" fill="#1e97fd"></path><path d="M0 481L16.7 478.2C33.3 475.3 66.7 469.7 100 467.5C133.3 465.3 166.7 466.7 200 471.8C233.3 477 266.7 486 300 493.8C333.3 501.7 366.7 508.3 400 505.5C433.3 502.7 466.7 490.3 500 491.2C533.3 492 566.7 506 600 505.5C633.3 505 666.7 490 700 486.5C733.3 483 766.7 491 800 490.2C833.3 489.3 866.7 479.7 883.3 474.8L900 470L900 601L883.3 601C866.7 601 833.3 601 800 601C766.7 601 733.3 601 700 601C666.7 601 633.3 601 600 601C566.7 601 533.3 601 500 601C466.7 601 433.3 601 400 601C366.7 601 333.3 601 300 601C266.7 601 233.3 601 200 601C166.7 601 133.3 601 100 601C66.7 601 33.3 601 16.7 601L0 601Z" fill="#0080ff"></path><path d="M0 520L16.7 523.2C33.3 526.3 66.7 532.7 100 532.5C133.3 532.3 166.7 525.7 200 526.8C233.3 528 266.7 537 300 543.8C333.3 550.7 366.7 555.3 400 550.8C433.3 546.3 466.7 532.7 500 528.2C533.3 523.7 566.7 528.3 600 532C633.3 535.7 666.7 538.3 700 542.8C733.3 547.3 766.7 553.7 800 549.5C833.3 545.3 866.7 530.7 883.3 523.3L900 516L900 601L883.3 601C866.7 601 833.3 601 800 601C766.7 601 733.3 601 700 601C666.7 601 633.3 601 600 601C566.7 601 533.3 601 500 601C466.7 601 433.3 601 400 601C366.7 601 333.3 601 300 601C266.7 601 233.3 601 200 601C166.7 601 133.3 601 100 601C66.7 601 33.3 601 16.7 601L0 601Z" fill="#0066ff"></path></svg>